<svg width="862" height="865" viewBox="0 0 862 865" fill="none" xmlns="http://www.w3.org/2000/svg">
<g filter="url(#filter0_d_16569_8344)">
<mask id="path-1-inside-1_16569_8344" fill="white">
<path d="M592.688 1155.9L592.318 1155.65C590.306 1126.77 588.882 1097.64 587.466 1068.61C582.79 972.803 578.167 878.043 552.491 796.756C493.291 609.33 322.061 493.52 -219.902 601.415L-220.306 601.139C322.18 493.086 493.561 609.027 552.826 796.663C578.514 877.993 583.14 972.774 587.815 1068.61C589.235 1097.72 590.662 1126.94 592.686 1155.9M605.275 1164.49L604.892 1164.23C600.96 1129.38 597.98 1093.95 595.002 1058.56C586.743 960.334 578.507 862.422 549.987 778.16C483.095 580.55 304.493 458.003 -247.893 582.315L-248.289 582.045C304.601 457.565 483.356 580.241 550.317 778.061C578.855 862.366 587.09 960.296 595.351 1058.54C598.336 1094.03 601.322 1129.56 605.272 1164.49L605.275 1164.49ZM620.1 1174.61L619.704 1174.34C613.375 1133.6 608.444 1091.74 603.505 1049.78C591.59 948.593 579.611 846.857 547.775 759.122C472.435 551.5 285.757 422.288 -274.594 564.095L-274.984 563.829C285.859 421.842 472.69 551.181 548.105 759.013C579.956 846.786 591.937 948.542 603.855 1049.75C608.808 1091.81 613.748 1133.78 620.1 1174.61ZM637.182 1186.27L636.771 1185.99C627.614 1139.57 620.365 1091.18 613.069 1042.45C597.368 937.605 581.429 831.161 545.685 739.311C461.125 522.028 265.594 386.457 -299.966 546.781L-300.343 546.524C265.684 386.01 461.372 521.707 546.012 739.198C581.769 831.078 597.711 937.543 613.415 1042.41C620.728 1091.25 627.993 1139.75 637.18 1186.26L637.182 1186.27ZM653.537 1186.72L653.268 1187.11C642.207 1138.92 633.067 1088.17 623.815 1036.78C604.12 927.414 583.902 815.125 543.493 718.368C448.949 491.988 243.754 350.642 -323.951 530.415L-324.319 530.164C243.835 350.189 449.19 491.662 543.817 718.246C584.24 815.041 604.464 927.349 624.16 1036.73C633.391 1088 642.509 1138.63 653.535 1186.72L653.537 1186.72ZM666.084 1168.33L665.82 1168.72C655.113 1125.21 645.578 1079.51 635.884 1033.04C611.909 918.126 586.96 798.548 540.916 695.891C435.65 461.203 220.008 315.003 -346.488 515.033L-346.848 514.788C220.078 314.548 435.884 460.873 541.239 695.762C587.298 798.45 612.248 918.049 636.229 1032.99C645.898 1079.33 655.41 1124.92 666.082 1168.33L666.084 1168.33ZM678.664 1149.89L678.403 1150.28C668.415 1112.14 659.024 1072.25 649.452 1031.57C620.815 909.907 590.523 781.209 537.607 671.474C420.933 429.509 194.173 279.742 -367.513 500.687L-367.864 500.447C194.226 279.285 421.155 429.174 537.926 671.336C590.858 781.107 621.156 909.824 649.796 1031.51C659.344 1072.07 668.706 1111.86 678.666 1149.9L678.664 1149.89ZM691.274 1131.41L691.017 1131.79C682.172 1099.89 673.541 1066.7 664.724 1032.81C630.974 903.06 594.523 762.94 533.162 644.715C404.461 396.756 166.116 245.098 -386.961 487.419L-387.304 487.185C166.159 244.638 404.674 396.411 533.472 644.567C594.85 762.826 631.306 902.965 665.062 1032.73C673.852 1066.52 682.456 1099.6 691.274 1131.41ZM703.912 1112.89L703.658 1113.27C696.474 1088.66 689.293 1063.26 681.964 1037.34C642.594 898.075 598.927 743.608 527.118 615.255C385.896 362.839 135.765 211.448 -404.701 475.314L-405.037 475.084C135.792 210.983 386.098 362.49 527.424 615.095C599.254 743.481 642.927 897.971 682.303 1037.26C689.602 1063.08 696.755 1088.38 703.913 1112.9L703.912 1112.89ZM716.577 1094.33L716.326 1094.7C711.448 1078.77 706.521 1062.5 701.512 1045.96C656.044 895.774 603.79 723.169 518.979 582.783C365.946 329.468 106.831 181.09 -409.788 458.509L-409.352 457.871C107.1 180.764 366.21 329.237 519.279 582.614C604.113 723.04 656.375 895.669 701.848 1045.87C706.828 1062.32 711.726 1078.5 716.576 1094.34L716.577 1094.33ZM729.265 1075.74L729.015 1076.11C727.295 1070.73 725.561 1065.31 723.817 1059.85C671.931 897.575 609.323 701.768 508.22 547.091C346.241 299.276 85.3706 157.101 -388.615 427.481L-388.16 426.814C85.6499 156.792 346.506 299.048 508.516 546.909C609.645 701.625 672.261 897.457 724.153 1059.76C725.869 1065.12 727.572 1070.45 729.265 1075.74ZM741.975 1057.11L741.728 1057.48C684.617 886.219 610.703 672.253 494.305 508.054C324.545 268.568 64.3598 135.001 -365.895 394.185L-365.421 393.491C64.6554 134.709 324.811 268.347 494.593 507.86C610.962 672.024 684.87 885.88 741.975 1057.11ZM754.706 1038.46L754.461 1038.82C692.674 860.459 606.693 634.297 476.72 465.686C300.912 237.62 44.5541 114.921 -341.357 358.226L-340.857 357.493C44.8753 114.638 301.185 237.407 476.996 465.478C606.946 634.054 692.917 860.116 754.706 1038.46ZM767.454 1019.78L767.211 1020.13C693.99 816.161 581.467 547.768 413.288 373.814C237.607 192.105 1.16516 113.52 -314.656 319.096L-314.141 318.341C1.50436 113.224 237.871 191.883 413.536 373.578C581.696 547.509 694.219 815.803 767.454 1019.78ZM780.22 1001.07L779.979 1001.42C703.718 795.947 579.921 523.209 404.985 346.865C228.221 168.677 -0.764772 88.9607 -285.669 276.616L-285.151 275.856C-0.407227 88.6837 228.497 168.465 405.234 346.627C580.144 522.946 703.94 795.59 780.22 1001.07ZM793.004 982.332L792.764 982.684C713.697 776.219 579.028 499.965 397.986 321.197C327.401 251.499 249.771 196.623 165.643 166.487C81.5231 136.353 -9.0961 130.958 -105.667 160.214C-153.865 174.814 -203.548 198.052 -254.644 231.149L-254.13 230.396C-203.257 197.526 -153.785 174.423 -105.783 159.882C-9.13516 130.604 81.5611 136.005 165.75 166.161C249.93 196.317 327.607 251.221 398.228 320.956C579.247 499.7 713.906 775.863 793.002 982.334L793.004 982.332ZM805.803 963.575L805.567 963.922C719.643 746.086 563.492 448.508 362.603 269.065C293.698 207.515 219.53 159.866 141.131 134.107C62.7419 108.352 -19.881 104.482 -105.707 130.48C-143.971 142.074 -182.874 159.606 -222.32 183.779L-221.83 183.062C-182.592 159.087 -143.891 141.682 -105.821 130.149C-19.9222 104.126 62.7721 108.001 141.232 133.78C219.679 159.556 293.889 207.23 362.832 268.812C563.699 448.238 719.844 745.723 805.802 963.577L805.803 963.575ZM818.619 944.793L818.384 945.138C754.836 788.459 650.719 589.492 520.787 422.354C423.699 297.466 312.204 190.355 192.459 131.949C72.7373 73.5552 -55.2343 63.8486 -185.297 133.749C-186.83 134.573 -188.359 135.41 -189.89 136.254L-189.448 135.607C-188.124 134.878 -186.797 134.155 -185.472 133.443C-55.2947 63.4798 72.7841 73.194 192.605 131.639C312.403 190.072 423.941 297.222 521.06 422.15C650.953 589.236 755.051 788.125 818.618 944.796L818.619 944.793ZM831.445 925.997L831.213 926.338C762.158 760.516 642.992 546.183 497.248 371.769C398.018 253.021 286.473 152.783 170.052 98.9766C62.6835 49.3591 -48.8343 39.2324 -158.671 90.5036L-158.282 89.9331C-48.5184 38.902 62.9095 49.0827 170.192 98.6664C286.667 152.498 398.253 252.769 497.515 371.556C643.218 545.92 762.363 760.179 831.445 925.997ZM844.286 907.18L844.053 907.521C769.265 732.366 633.44 501.84 471.216 320.792C370.567 208.463 259.763 115.191 147.088 66.024C54.5683 25.6558 -39.2117 15.0336 -129.675 48.0108L-129.334 47.5105C-38.9265 14.7071 54.778 25.3714 147.222 65.7095C259.95 114.9 370.795 208.207 471.476 320.57C633.66 501.572 769.462 732.023 844.284 907.182L844.286 907.18ZM857.136 888.348L856.905 888.686C776.244 704.214 622.28 456.948 443.292 270.121C341.928 164.315 232.543 77.8985 123.923 33.2616C46.722 1.54001 -30.0935 -9.0663 -103.375 9.46921L-103.076 9.03066C-29.8369 -9.38736 46.9168 1.24545 124.05 32.9428C232.722 77.5959 342.147 164.043 443.544 269.884C622.491 456.671 776.433 703.859 857.136 888.348ZM-191.087 621.074C338.832 528.337 503.442 637.642 555.74 815.079C578.947 893.821 580.042 985.962 581.156 1079.8C581.428 1102.76 581.702 1125.82 582.302 1148.81L581.942 1148.57C581.346 1125.65 581.074 1102.67 580.803 1079.79C579.69 985.974 578.598 893.857 555.404 815.165C503.167 637.939 338.709 528.765 -190.674 621.356L-191.087 621.074Z"/>
</mask>
<path d="M592.318 1155.65L578.351 1156.62L578.823 1163.39L584.426 1167.22L592.318 1155.65ZM587.466 1068.61L601.449 1067.93L601.449 1067.93L587.466 1068.61ZM552.491 796.756L539.141 800.972L539.141 800.972L552.491 796.756ZM-219.902 601.415L-227.793 612.98L-222.936 616.294L-217.168 615.146L-219.902 601.415ZM-220.306 601.139L-223.041 587.409L-255.725 593.919L-228.197 612.703L-220.306 601.139ZM552.826 796.663L566.176 792.446L566.176 792.446L552.826 796.663ZM587.815 1068.61L601.799 1067.93L601.799 1067.93L587.815 1068.61ZM605.275 1164.49L607.552 1178.31L642.029 1172.62L613.166 1152.93L605.275 1164.49ZM604.892 1164.23L590.98 1165.8L591.7 1172.18L597.001 1175.8L604.892 1164.23ZM595.002 1058.56L581.052 1059.73L581.052 1059.73L595.002 1058.56ZM549.987 778.16L563.248 773.672L563.247 773.671L549.987 778.16ZM-247.893 582.315L-255.784 593.879L-250.757 597.31L-244.819 595.973L-247.893 582.315ZM-248.289 582.045L-251.364 568.387L-282.778 575.459L-256.18 593.609L-248.289 582.045ZM550.317 778.061L537.056 782.55L537.056 782.55L550.317 778.061ZM595.351 1058.54L581.401 1059.72L581.401 1059.72L595.351 1058.54ZM605.272 1164.49L591.36 1166.07L593.015 1180.7L607.548 1178.31L605.272 1164.49ZM620.1 1174.61L612.209 1186.17L638.902 1204.39L633.934 1172.46L620.1 1174.61ZM619.704 1174.34L605.87 1176.49L606.802 1182.48L611.813 1185.9L619.704 1174.34ZM603.505 1049.78L617.409 1048.15L617.409 1048.15L603.505 1049.78ZM547.775 759.122L560.935 754.346L560.935 754.346L547.775 759.122ZM-274.594 564.095L-282.485 575.659L-277.275 579.215L-271.159 577.667L-274.594 564.095ZM-274.984 563.829L-278.42 550.257L-308.537 557.882L-282.875 575.393L-274.984 563.829ZM548.105 759.013L534.945 763.789L534.945 763.789L548.105 759.013ZM603.855 1049.75L589.951 1051.39L603.855 1049.75ZM636.771 1185.99L623.036 1188.69L624.145 1194.32L628.88 1197.55L636.771 1185.99ZM613.069 1042.45L626.915 1040.38L626.915 1040.38L613.069 1042.45ZM545.685 739.311L558.731 734.234L558.731 734.234L545.685 739.311ZM-299.966 546.781L-307.857 558.346L-302.448 562.037L-296.148 560.251L-299.966 546.781ZM-300.343 546.524L-304.163 533.055L-332.954 541.22L-308.234 558.089L-300.343 546.524ZM546.012 739.198L532.965 744.275L532.965 744.275L546.012 739.198ZM613.415 1042.41L627.261 1040.34L627.261 1040.34L613.415 1042.41ZM637.18 1186.26L623.445 1188.98L624.555 1194.6L629.289 1197.83L637.18 1186.26ZM653.268 1187.11L639.623 1190.24L646.786 1221.45L664.832 1195L653.268 1187.11ZM623.815 1036.78L637.593 1034.3L637.593 1034.3L623.815 1036.78ZM543.493 718.368L556.412 712.973L556.412 712.973L543.493 718.368ZM-323.951 530.415L-331.842 541.979L-326.216 545.818L-319.724 543.762L-323.951 530.415ZM-324.319 530.164L-328.547 516.818L-355.981 525.508L-332.21 541.728L-324.319 530.164ZM543.817 718.246L556.736 712.851L556.736 712.851L543.817 718.246ZM624.16 1036.73L637.938 1034.25L637.938 1034.25L624.16 1036.73ZM653.535 1186.72L639.89 1189.85L647.048 1221.07L665.1 1194.61L653.535 1186.72ZM665.82 1168.72L652.225 1172.06L659.715 1202.5L677.384 1176.61L665.82 1168.72ZM635.884 1033.04L622.179 1035.9L622.179 1035.9L635.884 1033.04ZM540.916 695.891L553.69 690.162L553.69 690.162L540.916 695.891ZM-346.488 515.033L-354.379 526.598L-348.517 530.597L-341.826 528.235L-346.488 515.033ZM-346.848 514.788L-351.51 501.587L-377.552 510.785L-354.739 526.352L-346.848 514.788ZM541.239 695.762L528.465 701.491L528.465 701.492L541.239 695.762ZM636.229 1032.99L649.934 1030.13L649.934 1030.13L636.229 1032.99ZM666.082 1168.33L652.487 1171.67L659.973 1202.12L677.647 1176.22L666.082 1168.33ZM678.664 1149.89L686.555 1138.33L674.991 1130.44L667.1 1142L678.664 1149.89ZM678.403 1150.28L664.86 1153.82L672.645 1183.55L689.967 1158.17L678.403 1150.28ZM649.452 1031.57L663.08 1028.36L663.079 1028.36L649.452 1031.57ZM537.607 671.474L524.997 677.555L524.997 677.555L537.607 671.474ZM-367.513 500.687L-375.404 512.251L-369.283 516.427L-362.388 513.715L-367.513 500.687ZM-367.864 500.447L-372.99 487.419L-397.602 497.103L-375.755 512.011L-367.864 500.447ZM537.926 671.336L550.536 665.255L537.926 671.336ZM649.796 1031.51L636.168 1034.71L636.168 1034.71L649.796 1031.51ZM678.666 1149.9L670.775 1161.46L701.69 1182.55L692.21 1146.35L678.666 1149.9ZM691.274 1131.41L702.838 1139.31L706.501 1133.94L704.765 1127.68L691.274 1131.41ZM691.017 1131.79L677.525 1135.53L685.582 1164.59L702.581 1139.68L691.017 1131.79ZM664.724 1032.81L651.175 1036.33L651.175 1036.33L664.724 1032.81ZM533.162 644.715L545.588 638.266L545.588 638.265L533.162 644.715ZM-386.961 487.419L-394.852 498.983L-388.446 503.354L-381.343 500.242L-386.961 487.419ZM-387.304 487.185L-392.923 474.362L-416.069 484.505L-395.195 498.749L-387.304 487.185ZM533.472 644.567L545.898 638.118L533.472 644.567ZM665.062 1032.73L651.513 1036.26L651.513 1036.26L665.062 1032.73ZM703.912 1112.89L717.669 1110.3L711.399 1077.08L692.348 1105L703.912 1112.89ZM703.658 1113.27L690.219 1117.19L698.523 1145.63L715.222 1121.16L703.658 1113.27ZM681.964 1037.34L668.492 1041.15L668.492 1041.15L681.964 1037.34ZM527.118 615.255L539.336 608.419L539.336 608.419L527.118 615.255ZM-404.701 475.314L-412.592 486.878L-405.871 491.464L-398.559 487.894L-404.701 475.314ZM-405.037 475.084L-411.18 462.504L-432.823 473.073L-412.928 486.648L-405.037 475.084ZM527.424 615.095L515.206 621.931L515.206 621.931L527.424 615.095ZM682.303 1037.26L695.775 1033.45L695.775 1033.45L682.303 1037.26ZM703.913 1112.9L690.474 1116.82L717.67 1110.3L703.913 1112.9ZM716.326 1094.7L702.939 1098.8L711.469 1126.66L727.89 1102.59L716.326 1094.7ZM701.512 1045.96L714.912 1041.9L701.512 1045.96ZM518.979 582.783L506.996 590.023L518.979 582.783ZM-409.788 458.509L-421.352 450.618L-403.165 470.844L-409.788 458.509ZM-409.352 457.871L-415.971 445.534L-418.987 447.153L-420.917 449.98L-409.352 457.871ZM519.279 582.614L531.263 575.374L531.262 575.374L519.279 582.614ZM701.848 1045.87L688.449 1049.93L701.848 1045.87ZM716.576 1094.34L703.189 1098.43L711.718 1126.29L728.14 1102.23L716.576 1094.34ZM729.265 1075.74L740.829 1083.63L744.682 1077.98L742.599 1071.47L729.265 1075.74ZM729.015 1076.11L715.681 1080.37L724.418 1107.68L740.579 1084L729.015 1076.11ZM723.817 1059.85L737.152 1055.59L723.817 1059.85ZM508.22 547.091L496.501 554.751L496.501 554.751L508.22 547.091ZM-388.615 427.481L-400.179 419.59L-381.678 439.641L-388.615 427.481ZM-388.16 426.814L-395.092 414.651L-397.902 416.252L-399.725 418.923L-388.16 426.814ZM508.516 546.909L496.797 554.569L496.797 554.569L508.516 546.909ZM724.153 1059.76L710.818 1064.02L710.818 1064.02L724.153 1059.76ZM741.975 1057.11L753.539 1065.01L757.452 1059.27L755.256 1052.69L741.975 1057.11ZM741.728 1057.48L728.447 1061.91L737.378 1088.69L753.292 1065.37L741.728 1057.48ZM494.305 508.054L482.883 516.15L482.883 516.15L494.305 508.054ZM-365.895 394.185L-377.459 386.294L-358.671 406.177L-365.895 394.185ZM-365.421 393.491L-372.639 381.495L-375.261 383.072L-376.985 385.6L-365.421 393.491ZM494.593 507.86L506.014 499.764L494.593 507.86ZM754.706 1038.46L766.27 1046.35L770.241 1040.53L767.935 1033.87L754.706 1038.46ZM754.461 1038.82L741.232 1043.4L750.34 1069.69L766.025 1046.71L754.461 1038.82ZM476.72 465.686L487.808 457.139L487.808 457.139L476.72 465.686ZM-341.357 358.226L-352.921 350.335L-333.891 370.068L-341.357 358.226ZM-340.857 357.493L-348.317 345.646L-350.78 347.197L-352.422 349.602L-340.857 357.493ZM476.996 465.478L465.908 474.025L465.908 474.026L476.996 465.478ZM767.454 1019.78L779.018 1027.67L783.044 1021.77L780.63 1015.04L767.454 1019.78ZM767.211 1020.13L754.034 1024.86L763.307 1050.69L778.775 1028.02L767.211 1020.13ZM413.288 373.814L423.353 364.083L423.353 364.083L413.288 373.814ZM-314.656 319.096L-326.221 311.205L-307.019 330.83L-314.656 319.096ZM-314.141 318.341L-321.769 306.601L-324.123 308.131L-325.705 310.449L-314.141 318.341ZM413.536 373.578L403.471 383.309L403.471 383.309L413.536 373.578ZM780.22 1001.07L791.784 1008.96L795.864 1002.98L793.345 996.194L780.22 1001.07ZM779.979 1001.42L766.854 1006.29L776.277 1031.68L791.543 1009.31L779.979 1001.42ZM404.985 346.865L395.045 356.725L395.046 356.725L404.985 346.865ZM-285.669 276.616L-297.233 268.725L-277.968 288.308L-285.669 276.616ZM-285.151 275.856L-292.841 264.157L-295.154 265.678L-296.715 267.965L-285.151 275.856ZM405.234 346.627L395.295 356.487L405.234 346.627ZM792.764 982.684L779.69 987.69L789.254 1012.67L804.328 990.575L792.764 982.684ZM397.986 321.197L407.823 311.235L407.822 311.235L397.986 321.197ZM165.643 166.487L160.922 179.667L160.922 179.667L165.643 166.487ZM-105.667 160.214L-101.608 173.613L-101.608 173.613L-105.667 160.214ZM-254.644 231.149L-266.208 223.258L-247.033 242.9L-254.644 231.149ZM-254.13 230.396L-261.727 218.637L-264.101 220.17L-265.694 222.505L-254.13 230.396ZM-105.783 159.882L-101.725 173.281L-101.725 173.281L-105.783 159.882ZM165.75 166.161L170.472 152.981L170.471 152.981L165.75 166.161ZM398.228 320.956L388.391 330.918L388.391 330.918L398.228 320.956ZM793.002 982.334L779.929 987.343L789.494 1012.31L804.566 990.226L793.002 982.334ZM805.567 963.922L792.543 969.059L802.238 993.638L817.131 971.813L805.567 963.922ZM362.603 269.065L353.276 279.506L362.603 269.065ZM141.131 134.107L145.501 120.806L145.501 120.806L141.131 134.107ZM-105.707 130.48L-109.766 117.081L-109.766 117.081L-105.707 130.48ZM-222.32 183.779L-233.884 175.888L-215.005 195.716L-222.32 183.779ZM-221.83 183.062L-229.129 171.115L-231.698 172.684L-233.394 175.171L-221.83 183.062ZM-105.821 130.149L-101.762 143.548L-101.762 143.548L-105.821 130.149ZM141.232 133.78L145.603 120.479L145.602 120.479L141.232 133.78ZM362.832 268.812L372.158 258.371L372.158 258.371L362.832 268.812ZM805.802 963.577L792.779 968.715L802.475 993.29L817.366 971.468L805.802 963.577ZM818.384 945.138L805.41 950.4L815.227 974.603L829.948 953.029L818.384 945.138ZM520.787 422.354L531.84 413.761L531.84 413.761L520.787 422.354ZM192.459 131.949L198.597 119.366L198.597 119.366L192.459 131.949ZM-185.297 133.749L-178.671 146.082L-178.67 146.081L-185.297 133.749ZM-189.89 136.254L-201.454 128.363L-183.132 148.515L-189.89 136.254ZM-189.448 135.607L-196.197 123.34L-199.127 124.953L-201.012 127.715L-189.448 135.607ZM-185.472 133.443L-178.846 145.776L-178.844 145.775L-185.472 133.443ZM192.605 131.639L186.467 144.222L186.468 144.222L192.605 131.639ZM521.06 422.15L532.113 413.557L521.06 422.15ZM818.618 944.796L805.645 950.059L815.463 974.257L830.182 952.687L818.618 944.796ZM831.445 925.997L843.009 933.889L847.287 927.619L844.368 920.613L831.445 925.997ZM831.213 926.338L818.289 931.72L828.218 955.564L842.777 934.229L831.213 926.338ZM497.248 371.769L507.991 362.792L507.991 362.792L497.248 371.769ZM170.052 98.9766L175.926 86.2682L175.925 86.2679L170.052 98.9766ZM-158.671 90.5036L-170.235 82.6126L-199.013 124.785L-152.749 103.19L-158.671 90.5036ZM-158.282 89.9331L-164.184 77.2381L-167.676 78.8614L-169.846 82.042L-158.282 89.9331ZM170.192 98.6664L164.318 111.375L164.318 111.375L170.192 98.6664ZM497.515 371.556L508.258 362.579L508.258 362.579L497.515 371.556ZM844.053 907.521L831.178 913.018L841.213 936.521L855.617 915.412L844.053 907.521ZM471.216 320.792L460.789 330.134L460.789 330.134L471.216 320.792ZM147.088 66.024L152.687 53.1925L152.687 53.1923L147.088 66.024ZM-129.675 48.0108L-141.239 40.1197L-165.771 76.0702L-124.88 61.1641L-129.675 48.0108ZM-129.334 47.5105L-134.109 34.3501L-138.353 35.89L-140.898 39.6194L-129.334 47.5105ZM147.222 65.7095L152.821 52.878L152.821 52.8779L147.222 65.7095ZM471.476 320.57L481.903 311.227L481.903 311.227L471.476 320.57ZM844.284 907.182L831.41 912.682L841.447 936.179L855.848 915.073L844.284 907.182ZM857.136 888.348L868.7 896.239L873.069 889.837L869.963 882.737L857.136 888.348ZM856.905 888.686L844.078 894.295L854.212 917.472L868.469 896.577L856.905 888.686ZM443.292 270.121L433.183 279.806L433.183 279.806L443.292 270.121ZM123.923 33.2616L129.245 20.3124L129.244 20.3122L123.923 33.2616ZM-103.375 9.46921L-114.94 1.57812L-135.769 32.1036L-99.9424 23.0418L-103.375 9.46921ZM-103.076 9.03066L-106.491 -4.5466L-111.645 -3.25044L-114.64 1.13957L-103.076 9.03066ZM124.05 32.9428L118.729 45.892L118.729 45.8922L124.05 32.9428ZM443.544 269.884L433.435 279.569L433.435 279.569L443.544 269.884ZM-191.087 621.074L-193.501 607.284L-227.433 613.222L-198.978 632.639L-191.087 621.074ZM555.74 815.079L569.169 811.121L569.169 811.121L555.74 815.079ZM581.156 1079.8L595.155 1079.63L595.155 1079.63L581.156 1079.8ZM582.302 1148.81L574.411 1160.38L597.01 1175.8L596.297 1148.45L582.302 1148.81ZM581.942 1148.57L567.947 1148.93L568.133 1156.09L574.051 1160.13L581.942 1148.57ZM580.803 1079.79L594.802 1079.62L594.802 1079.62L580.803 1079.79ZM555.404 815.165L568.833 811.207L555.404 815.165ZM-190.674 621.356L-198.565 632.92L-193.866 636.127L-188.262 635.147L-190.674 621.356ZM592.688 1155.9L600.579 1144.34L600.209 1144.09L592.318 1155.65L584.426 1167.22L584.797 1167.47L592.688 1155.9ZM592.318 1155.65L606.284 1154.68C604.284 1125.97 602.867 1096.98 601.449 1067.93L587.466 1068.61L573.482 1069.3C574.898 1098.3 576.328 1127.57 578.351 1156.62L592.318 1155.65ZM587.466 1068.61L601.449 1067.93C596.796 972.585 592.168 875.886 565.841 792.539L552.491 796.756L539.141 800.972C564.167 880.201 568.784 973.022 573.482 1069.3L587.466 1068.61ZM552.491 796.756L565.841 792.539C535.1 695.214 474.577 615.557 351.715 575.044C230.278 535.002 49.0745 533.592 -222.635 587.685L-219.902 601.415L-217.168 615.146C53.0851 561.343 228.479 563.891 342.947 601.636C455.991 638.911 510.682 710.872 539.141 800.972L552.491 796.756ZM-219.902 601.415L-212.011 589.851L-212.415 589.575L-220.306 601.139L-228.197 612.703L-227.793 612.98L-219.902 601.415ZM-220.306 601.139L-217.572 614.87C52.9432 560.988 228.504 563.53 343.083 601.313C456.238 638.627 510.984 710.672 539.476 800.879L552.826 796.663L566.176 792.446C535.403 695.017 474.826 615.274 351.852 574.722C230.302 534.64 48.9302 533.237 -223.041 587.409L-220.306 601.139ZM552.826 796.663L539.476 800.879C564.513 880.15 569.134 972.993 573.832 1069.29L587.815 1068.61L601.799 1067.93C597.146 972.555 592.514 875.836 566.176 792.446L552.826 796.663ZM587.815 1068.61L573.832 1069.29C575.251 1098.38 576.685 1127.74 578.72 1156.88L592.686 1155.9L606.652 1154.93C604.64 1126.13 603.22 1097.07 601.799 1067.93L587.815 1068.61ZM605.275 1164.49L613.166 1152.93L612.783 1152.67L604.892 1164.23L597.001 1175.8L597.384 1176.06L605.275 1164.49ZM604.892 1164.23L618.804 1162.66C614.897 1128.04 611.933 1092.81 608.953 1057.39L595.002 1058.56L581.052 1059.73C584.026 1095.09 587.022 1130.72 590.98 1165.8L604.892 1164.23ZM595.002 1058.56L608.953 1057.39C600.729 959.582 592.42 859.857 563.248 773.672L549.987 778.16L536.726 782.649C564.595 864.987 572.756 961.085 581.052 1059.73L595.002 1058.56ZM549.987 778.16L563.247 773.671C528.672 671.527 464.486 587.629 337.447 546.206C211.77 505.228 26.0192 506.322 -250.967 568.657L-247.893 582.315L-244.819 595.973C30.5806 533.996 210.324 534.207 328.767 572.827C445.849 611.003 504.41 687.183 536.726 782.649L549.987 778.16ZM-247.893 582.315L-240.002 570.751L-240.398 570.48L-248.289 582.045L-256.18 593.609L-255.784 593.879L-247.893 582.315ZM-248.289 582.045L-245.214 595.703C30.438 533.641 210.345 533.844 328.897 572.501C446.088 610.714 504.705 686.978 537.056 782.55L550.317 778.061L563.577 773.572C528.967 671.324 464.727 587.341 337.577 545.88C211.79 504.864 25.8741 505.968 -251.364 568.387L-248.289 582.045ZM550.317 778.061L537.056 782.55C564.943 864.931 573.104 961.048 581.401 1059.72L595.351 1058.54L609.302 1057.37C601.076 959.544 592.767 859.801 563.577 773.572L550.317 778.061ZM595.351 1058.54L581.401 1059.72C584.382 1095.17 587.384 1130.89 591.36 1166.07L605.272 1164.49L619.183 1162.92C615.26 1128.22 612.289 1092.89 609.302 1057.37L595.351 1058.54ZM605.272 1164.49L607.548 1178.31L607.552 1178.31L605.275 1164.49L602.999 1150.68L602.995 1150.68L605.272 1164.49ZM620.1 1174.61L627.991 1163.05L627.595 1162.78L619.704 1174.34L611.813 1185.9L612.209 1186.17L620.1 1174.61ZM619.704 1174.34L633.538 1172.19C627.255 1131.75 622.353 1090.15 617.409 1048.15L603.505 1049.78L589.601 1051.42C594.534 1093.33 599.494 1135.45 605.87 1176.49L619.704 1174.34ZM603.505 1049.78L617.409 1048.15C605.54 947.344 593.43 843.895 560.935 754.346L547.775 759.122L534.615 763.897C565.793 849.818 577.641 949.842 589.601 1051.42L603.505 1049.78ZM547.775 759.122L560.935 754.346C522.146 647.451 453.911 559.389 322.753 517.244C192.871 475.509 3.01275 479.4 -278.029 550.523L-274.594 564.095L-271.159 577.667C8.15064 506.983 191.806 504.577 314.187 543.901C435.289 582.815 498.064 663.171 534.615 763.897L547.775 759.122ZM-274.594 564.095L-266.703 552.531L-267.092 552.265L-274.984 563.829L-282.875 575.393L-282.485 575.659L-274.594 564.095ZM-274.984 563.829L-271.548 577.401C8.00772 506.627 191.824 504.208 314.313 543.568C435.524 582.517 498.356 662.956 534.945 763.789L548.105 759.013L561.265 754.238C522.439 647.238 454.148 559.091 322.879 516.91C192.888 475.139 2.86738 479.045 -278.42 550.257L-274.984 563.829ZM548.105 759.013L534.945 763.789C566.137 849.748 577.987 949.791 589.951 1051.39L603.855 1049.75L617.759 1048.12C605.886 947.293 593.775 843.825 561.265 754.238L548.105 759.013ZM603.855 1049.75L589.951 1051.39C594.899 1093.4 599.867 1135.63 606.267 1176.76L620.1 1174.61L633.934 1172.46C627.628 1131.93 622.718 1090.23 617.759 1048.12L603.855 1049.75ZM637.182 1186.27L645.073 1174.7L644.662 1174.42L636.771 1185.99L628.88 1197.55L629.291 1197.83L637.182 1186.27ZM636.771 1185.99L650.506 1183.28C641.423 1137.23 634.219 1089.17 626.915 1040.38L613.069 1042.45L599.223 1044.52C606.51 1093.19 613.805 1141.9 623.036 1188.69L636.771 1185.99ZM613.069 1042.45L626.915 1040.38C611.268 935.894 595.149 827.813 558.731 734.234L545.685 739.311L532.638 744.389C567.709 834.508 583.468 939.316 599.223 1044.53L613.069 1042.45ZM545.685 739.311L558.731 734.234C515.342 622.742 442.648 530.698 307.442 488.091C173.41 445.854 -20.0585 452.882 -303.785 533.312L-299.966 546.781L-296.148 560.251C-14.3138 480.357 172.763 475.008 299.027 514.796C424.116 554.215 491.467 638.598 532.638 744.389L545.685 739.311ZM-299.966 546.781L-292.075 535.217L-292.452 534.96L-300.343 546.524L-308.234 558.089L-307.857 558.346L-299.966 546.781ZM-300.343 546.524L-296.524 559.993C-14.456 480.004 172.777 474.64 299.147 514.462C424.343 553.914 491.754 638.38 532.965 744.275L546.012 739.198L559.059 734.12C515.63 622.525 442.877 530.397 307.562 487.756C173.422 445.486 -20.2032 452.53 -304.163 533.055L-300.343 546.524ZM546.012 739.198L532.965 744.275C568.049 834.426 583.811 939.254 599.57 1044.48L613.415 1042.41L627.261 1040.34C611.61 935.831 595.489 827.73 559.059 734.12L546.012 739.198ZM613.415 1042.41L599.57 1044.48C606.874 1093.26 614.184 1142.09 623.445 1188.98L637.18 1186.26L650.914 1183.55C641.801 1137.41 634.583 1089.24 627.261 1040.34L613.415 1042.41ZM637.18 1186.26L629.289 1197.83L629.291 1197.83L637.182 1186.27L645.073 1174.7L645.071 1174.7L637.18 1186.26ZM653.537 1186.72L641.973 1178.83L641.704 1179.22L653.268 1187.11L664.832 1195L665.101 1194.61L653.537 1186.72ZM653.268 1187.11L666.913 1183.98C655.94 1136.17 646.857 1085.76 637.593 1034.3L623.815 1036.78L610.036 1039.26C619.277 1090.59 628.474 1141.67 639.623 1190.24L653.268 1187.11ZM623.815 1036.78L637.593 1034.3C617.96 925.276 597.518 811.401 556.412 712.973L543.493 718.368L530.575 723.763C570.285 818.849 590.28 929.551 610.036 1039.26L623.815 1036.78ZM543.493 718.368L556.412 712.973C508.037 597.142 430.468 501.42 291.315 458.701C153.217 416.305 -43.2922 426.855 -328.177 517.068L-323.951 530.415L-319.724 543.762C-36.9048 454.202 153.035 445.539 283.098 485.468C412.105 525.073 484.405 613.214 530.575 723.763L543.493 718.368ZM-323.951 530.415L-316.06 518.851L-316.428 518.6L-324.319 530.164L-332.21 541.728L-331.842 541.979L-323.951 530.415ZM-324.319 530.164L-320.091 543.51C-37.0471 453.85 153.045 445.168 283.213 485.129C412.326 524.766 484.687 612.989 530.898 723.641L543.817 718.246L556.736 712.851C508.32 596.919 430.69 501.114 291.43 458.362C153.226 415.934 -43.4369 426.503 -328.547 516.818L-324.319 530.164ZM543.817 718.246L530.898 723.641C570.623 818.765 590.624 929.486 610.382 1039.22L624.16 1036.73L637.938 1034.25C618.304 925.211 597.857 811.317 556.736 712.851L543.817 718.246ZM624.16 1036.73L610.382 1039.22C619.601 1090.42 628.776 1141.38 639.89 1189.85L653.535 1186.72L667.181 1183.59C656.242 1135.88 647.182 1085.59 637.938 1034.25L624.16 1036.73ZM653.535 1186.72L665.1 1194.61L665.101 1194.61L653.537 1186.72L641.973 1178.83L641.971 1178.83L653.535 1186.72ZM666.084 1168.33L654.52 1160.44L654.255 1160.83L665.82 1168.72L677.384 1176.61L677.648 1176.22L666.084 1168.33ZM665.82 1168.72L679.414 1165.37C668.778 1122.15 659.293 1076.7 649.589 1030.18L635.884 1033.04L622.179 1035.9C631.863 1082.32 641.449 1128.27 652.225 1172.06L665.82 1168.72ZM635.884 1033.04L649.589 1030.18C625.683 915.599 600.469 794.457 553.69 690.162L540.916 695.891L528.142 701.621C573.451 802.638 598.134 920.653 622.179 1035.9L635.884 1033.04ZM540.916 695.891L553.69 690.162C499.956 570.364 417.11 471.407 274.155 429.02C132.125 386.908 -66.7765 401.42 -351.149 501.832L-346.488 515.033L-341.826 528.235C-59.7032 428.617 132.464 416.213 266.195 455.865C399.002 495.243 476.61 586.73 528.142 701.621L540.916 695.891ZM-346.488 515.033L-338.597 503.469L-338.956 503.224L-346.848 514.788L-354.739 526.352L-354.379 526.598L-346.488 515.033ZM-346.848 514.788L-342.185 527.989C-59.847 428.266 132.468 415.842 266.305 455.524C399.217 494.932 476.888 586.5 528.465 701.491L541.239 695.762L554.012 690.032C500.235 570.135 417.326 471.096 274.264 428.679C132.128 386.537 -66.9226 401.07 -351.51 501.587L-346.848 514.788ZM541.239 695.762L528.465 701.492C573.789 802.541 598.474 920.576 622.524 1035.84L636.229 1032.99L649.934 1030.13C626.023 915.522 600.807 794.36 554.012 690.032L541.239 695.762ZM636.229 1032.99L622.524 1035.84C632.183 1082.14 641.745 1127.98 652.487 1171.67L666.082 1168.33L679.678 1164.99C669.074 1121.86 659.613 1076.52 649.934 1030.13L636.229 1032.99ZM666.082 1168.33L677.647 1176.22L677.648 1176.22L666.084 1168.33L654.52 1160.44L654.518 1160.44L666.082 1168.33ZM678.664 1149.89L667.1 1142L666.839 1142.39L678.403 1150.28L689.967 1158.17L690.229 1157.78L678.664 1149.89ZM678.403 1150.28L691.946 1146.73C682.011 1108.79 672.659 1069.08 663.08 1028.36L649.452 1031.57L635.824 1034.78C645.388 1075.42 654.82 1115.49 664.86 1153.82L678.403 1150.28ZM649.452 1031.57L663.079 1028.36C634.52 907.027 603.92 776.761 550.217 665.393L537.607 671.474L524.997 677.555C577.125 785.657 607.111 912.787 635.824 1034.78L649.452 1031.57ZM537.607 671.474L550.218 665.393C490.776 542.12 402.294 440.523 255.741 399.019C109.978 357.738 -90.5751 376.706 -372.637 487.658L-367.513 500.687L-362.388 513.715C-82.7644 403.722 110.905 387.102 248.112 425.959C384.529 464.594 467.764 558.862 524.997 677.555L537.607 671.474ZM-367.513 500.687L-359.621 489.123L-359.973 488.883L-367.864 500.447L-375.755 512.011L-375.404 512.251L-367.513 500.687ZM-367.864 500.447L-362.738 513.475C-82.9125 403.374 110.9 386.73 248.211 425.615C384.733 464.277 468.034 558.625 525.315 677.417L537.926 671.336L550.536 665.255C491.047 541.884 402.498 440.207 255.84 398.675C109.971 357.366 -90.7255 376.358 -372.99 487.419L-367.864 500.447ZM537.926 671.336L525.315 677.416C577.46 785.555 607.451 912.705 636.168 1034.71L649.796 1031.51L663.423 1028.3C634.861 906.944 604.255 776.658 550.536 665.255L537.926 671.336ZM649.796 1031.51L636.168 1034.71C645.709 1075.25 655.111 1115.2 665.123 1153.44L678.666 1149.9L692.21 1146.35C682.302 1108.51 672.98 1068.9 663.423 1028.3L649.796 1031.51ZM678.666 1149.9L686.558 1138.33L686.555 1138.33L678.664 1149.89L670.773 1161.46L670.775 1161.46L678.666 1149.9ZM691.274 1131.41L679.71 1123.52L679.452 1123.9L691.017 1131.79L702.581 1139.68L702.838 1139.31L691.274 1131.41ZM691.017 1131.79L704.508 1128.05C695.699 1096.27 687.096 1063.2 678.273 1029.28L664.724 1032.81L651.175 1036.33C659.986 1070.2 668.646 1103.5 677.525 1135.53L691.017 1131.79ZM664.724 1032.81L678.273 1029.29C644.608 899.865 607.807 758.143 545.588 638.266L533.162 644.715L520.736 651.164C581.239 767.737 617.339 906.255 651.175 1036.33L664.724 1032.81ZM533.162 644.715L545.588 638.265C480.123 512.138 385.714 408.653 235.849 368.685C86.6352 328.891 -114.727 352.86 -392.579 474.595L-386.961 487.419L-381.343 500.242C-106.118 379.657 88.2307 358.295 228.634 395.739C368.386 433.01 457.501 529.333 520.736 651.164L533.162 644.715ZM-386.961 487.419L-379.07 475.854L-379.413 475.621L-387.304 487.185L-395.195 498.749L-394.852 498.983L-386.961 487.419ZM-387.304 487.185L-381.685 500.007C-106.267 379.31 88.2205 357.92 228.726 395.39C368.58 432.685 457.762 529.086 521.046 651.017L533.472 644.567L545.898 638.118C480.384 511.892 385.909 408.328 235.941 368.335C86.6234 328.516 -114.878 352.513 -392.923 474.362L-387.304 487.185ZM533.472 644.567L521.046 651.017C581.567 767.623 617.671 906.161 651.513 1036.26L665.062 1032.73L678.611 1029.21C644.941 899.77 608.134 758.029 545.898 638.118L533.472 644.567ZM665.062 1032.73L651.513 1036.26C660.297 1070.02 668.93 1103.22 677.782 1135.15L691.274 1131.41L704.765 1127.68C695.983 1095.99 687.406 1063.02 678.611 1029.21L665.062 1032.73ZM703.912 1112.89L692.348 1105L692.094 1105.38L703.658 1113.27L715.222 1121.16L715.476 1120.78L703.912 1112.89ZM703.658 1113.27L717.097 1109.34C709.933 1084.8 702.768 1059.47 695.436 1033.53L681.964 1037.34L668.492 1041.15C675.818 1067.06 683.015 1092.52 690.219 1117.19L703.658 1113.27ZM681.964 1037.34L695.436 1033.53C656.162 894.605 612.096 738.471 539.336 608.419L527.118 615.255L514.901 622.09C585.759 748.744 629.026 901.545 668.492 1041.15L681.964 1037.34ZM527.118 615.255L539.336 608.419C467.592 480.185 367.066 375.746 214.276 338.086C62.0027 300.553 -139.207 330.115 -410.843 462.733L-404.701 475.314L-398.559 487.894C-129.729 356.647 64.3598 329.972 207.575 365.272C350.272 400.445 445.423 497.909 514.901 622.09L527.118 615.255ZM-404.701 475.314L-396.81 463.749L-397.146 463.52L-405.037 475.084L-412.928 486.648L-412.592 486.878L-404.701 475.314ZM-405.037 475.084L-398.894 487.664C-129.883 356.299 64.3403 329.595 207.657 364.918C350.456 400.114 445.676 497.654 515.206 621.931L527.424 615.095L539.642 608.26C467.845 479.931 367.25 375.415 214.357 337.731C61.9817 300.175 -139.363 329.768 -411.18 462.504L-405.037 475.084ZM527.424 615.095L515.206 621.931C586.086 748.618 629.359 901.441 668.831 1041.07L682.303 1037.26L695.775 1033.45C656.495 894.502 612.422 738.345 539.642 608.26L527.424 615.095ZM682.303 1037.26L668.83 1041.07C676.127 1066.88 683.297 1092.24 690.474 1116.82L703.913 1112.9L717.352 1108.97C710.214 1084.52 703.077 1059.28 695.775 1033.45L682.303 1037.26ZM703.913 1112.9L717.67 1110.3L717.669 1110.3L703.912 1112.89L690.155 1115.49L690.156 1115.49L703.913 1112.9ZM716.577 1094.33L705.013 1086.44L704.761 1086.81L716.326 1094.7L727.89 1102.59L728.141 1102.22L716.577 1094.33ZM716.326 1094.7L729.712 1090.6C724.842 1074.7 719.921 1058.45 714.912 1041.9L701.512 1045.96L688.113 1050.02C693.121 1066.56 698.054 1082.85 702.939 1098.8L716.326 1094.7ZM701.512 1045.96L714.912 1041.9C669.551 892.073 616.844 717.702 530.963 575.544L518.979 582.783L506.996 590.023C590.737 728.636 642.537 899.474 688.113 1050.02L701.512 1045.96ZM518.979 582.783L530.963 575.544C453.296 446.984 347.546 343.202 194.072 307.976C40.9552 272.831 -156.588 306.652 -416.411 446.175L-409.788 458.509L-403.165 470.844C-146.37 332.947 43.9543 302.247 187.808 335.266C331.305 368.203 431.629 465.267 506.996 590.023L518.979 582.783ZM-409.788 458.509L-398.224 466.401L-397.788 465.762L-409.352 457.871L-420.917 449.98L-421.352 450.618L-409.788 458.509ZM-409.352 457.871L-402.733 470.207C-146.024 332.468 44.2564 301.868 188.093 334.955C331.576 367.96 431.91 465.065 507.296 589.853L519.279 582.614L531.262 575.374C453.579 446.785 347.823 342.966 194.37 307.667C41.2718 272.45 -156.229 306.168 -415.971 445.534L-409.352 457.871ZM519.279 582.614L507.296 589.853C591.059 728.507 642.868 899.37 688.449 1049.93L701.848 1045.87L715.248 1041.82C669.882 891.968 617.166 717.573 531.263 575.374L519.279 582.614ZM701.848 1045.87L688.449 1049.93C693.427 1066.37 698.332 1082.57 703.189 1098.43L716.576 1094.34L729.962 1090.24C725.12 1074.42 720.228 1058.27 715.248 1041.82L701.848 1045.87ZM716.576 1094.34L728.14 1102.23L728.141 1102.22L716.577 1094.33L705.013 1086.44L705.011 1086.44L716.576 1094.34ZM729.265 1075.74L717.701 1067.85L717.451 1068.22L729.015 1076.11L740.579 1084L740.829 1083.63L729.265 1075.74ZM729.015 1076.11L742.349 1071.84C740.629 1066.46 738.896 1061.04 737.152 1055.59L723.817 1059.85L710.482 1064.12C712.226 1069.57 713.961 1075 715.681 1080.37L729.015 1076.11ZM723.817 1059.85L737.152 1055.59C685.388 893.693 622.266 695.981 519.939 539.432L508.22 547.091L496.501 554.751C596.38 707.555 658.474 901.458 710.482 1064.12L723.817 1059.85ZM508.22 547.091L519.939 539.432C437.801 413.767 329.412 313.118 179.893 279.308C30.5132 245.529 -156.864 279.163 -395.552 415.32L-388.615 427.481L-381.678 439.641C-146.381 305.418 33.6703 274.95 173.717 306.618C313.624 338.255 416.66 432.6 496.501 554.751L508.22 547.091ZM-388.615 427.481L-377.051 435.372L-376.596 434.706L-388.16 426.814L-399.725 418.923L-400.179 419.59L-388.615 427.481ZM-388.16 426.814L-381.228 438.978C-146.021 304.934 33.9816 274.573 174.008 306.309C313.897 338.015 416.939 432.394 496.797 554.569L508.516 546.909L520.235 539.25C438.082 413.564 329.691 312.884 180.197 279.002C30.8409 245.151 -156.489 278.672 -395.092 414.651L-388.16 426.814ZM508.516 546.909L496.797 554.569C596.702 707.413 658.804 901.34 710.818 1064.02L724.153 1059.76L737.488 1055.49C685.718 893.575 622.588 695.838 520.234 539.25L508.516 546.909ZM724.153 1059.76L710.818 1064.02C712.534 1069.39 714.238 1074.72 715.931 1080.01L729.265 1075.74L742.599 1071.47C740.907 1066.18 739.204 1060.86 737.487 1055.49L724.153 1059.76ZM741.975 1057.11L730.41 1049.22L730.163 1049.59L741.728 1057.48L753.292 1065.37L753.539 1065.01L741.975 1057.11ZM741.728 1057.48L755.009 1053.05C697.985 882.052 623.509 666.111 505.726 499.957L494.305 508.054L482.883 516.15C597.896 678.396 671.248 890.385 728.447 1061.91L741.728 1057.48ZM494.305 508.054L505.726 499.958C419.694 378.589 309.568 282.395 164.91 250.447C20.2008 218.489 -156.111 251.468 -373.119 382.193L-365.895 394.185L-358.671 406.177C-145.424 277.718 23.484 247.888 158.871 277.789C294.309 307.7 399.155 398.033 482.883 516.15L494.305 508.054ZM-365.895 394.185L-354.331 402.076L-353.857 401.382L-365.421 393.491L-376.985 385.6L-377.459 386.294L-365.895 394.185ZM-365.421 393.491L-358.203 405.487C-145.048 277.229 23.8073 247.515 159.17 277.484C294.585 307.465 399.432 397.824 483.171 515.957L494.593 507.86L506.014 499.764C419.972 378.383 309.85 282.167 165.223 250.146C20.5429 218.114 -155.718 250.971 -372.639 381.495L-365.421 393.491ZM494.593 507.86L483.171 515.957C598.156 678.167 671.502 890.048 728.694 1061.54L741.975 1057.11L755.256 1052.69C698.238 881.711 623.768 665.881 506.014 499.764L494.593 507.86ZM754.706 1038.46L743.142 1030.57L742.896 1030.93L754.461 1038.82L766.025 1046.71L766.27 1046.35L754.706 1038.46ZM754.461 1038.82L767.689 1034.23C705.917 855.917 619.326 627.753 487.808 457.139L476.72 465.686L465.632 474.233C594.061 640.841 679.431 865.001 741.232 1043.4L754.461 1038.82ZM476.72 465.686L487.808 457.139C398.744 341.601 288.106 251.215 149.403 221.503C10.4922 191.746 -153.8 223.427 -348.824 346.383L-341.357 358.226L-333.891 370.068C-143.003 249.72 13.8392 221.098 143.538 248.881C273.443 276.709 378.888 361.705 465.632 474.233L476.72 465.686ZM-341.357 358.226L-329.793 366.117L-329.293 365.384L-340.857 357.493L-352.422 349.602L-352.921 350.335L-341.357 358.226ZM-340.857 357.493L-333.398 369.341C-142.603 249.217 14.182 220.721 143.85 248.576C273.726 276.476 379.162 361.494 465.908 474.025L476.996 465.478L488.084 456.931C399.019 341.392 288.395 250.989 149.73 221.201C10.857 191.367 -153.379 222.914 -348.317 345.646L-340.857 357.493ZM476.996 465.478L465.908 474.026C594.315 640.599 679.675 864.66 741.478 1043.04L754.706 1038.46L767.935 1033.87C706.159 855.572 619.578 627.509 488.084 456.931L476.996 465.478ZM767.454 1019.78L755.889 1011.88L755.647 1012.24L767.211 1020.13L778.775 1028.02L779.018 1027.67L767.454 1019.78ZM767.211 1020.13L780.388 1015.4C707.152 811.39 593.816 540.4 423.353 364.083L413.288 373.814L403.223 383.545C569.118 555.136 680.828 820.932 754.034 1024.86L767.211 1020.13ZM413.288 373.814L423.353 364.083C334.085 271.752 228.357 204.574 103.786 187.355C-20.9121 170.119 -162.331 203.239 -322.294 307.363L-314.656 319.096L-307.019 330.83C-151.161 229.377 -16.4474 199.002 99.9517 215.091C216.477 231.198 316.81 294.167 403.223 383.545L413.288 373.814ZM-314.656 319.096L-303.092 326.987L-302.577 326.232L-314.141 318.341L-325.705 310.449L-326.221 311.205L-314.656 319.096ZM-314.141 318.341L-306.512 330.08C-150.745 228.857 -16.0952 198.611 100.264 214.772C216.751 230.95 317.065 293.937 403.471 383.309L413.536 373.578L423.602 363.847C334.343 271.524 228.641 204.333 104.116 187.038C-20.5352 169.725 -161.891 202.708 -321.769 306.601L-314.141 318.341ZM413.536 373.578L403.471 383.309C569.348 554.879 681.058 820.576 754.277 1024.51L767.454 1019.78L780.63 1015.04C707.381 811.029 594.045 540.14 423.602 363.847L413.536 373.578ZM780.22 1001.07L768.656 993.176L768.415 993.529L779.979 1001.42L791.543 1009.31L791.784 1008.96L780.22 1001.07ZM779.979 1001.42L793.104 996.549C716.732 790.776 592.097 515.604 414.924 337.006L404.985 346.865L395.046 356.725C567.744 530.813 690.704 801.117 766.854 1006.29L779.979 1001.42ZM404.985 346.865L414.924 337.006C325.242 246.6 221.264 180.104 102.464 160.732C-16.6271 141.312 -148.604 169.573 -293.37 264.925L-285.669 276.616L-277.968 288.308C-137.83 196.004 -12.8616 170.296 97.9575 188.367C209.067 206.485 307.964 268.942 395.045 356.725L404.985 346.865ZM-285.669 276.616L-274.105 284.507L-273.586 283.747L-285.151 275.856L-296.715 267.965L-297.233 268.725L-285.669 276.616ZM-285.151 275.856L-277.461 287.555C-137.406 195.492 -12.4983 169.915 98.2814 188.057C209.352 206.247 308.226 268.716 395.295 356.487L405.234 346.627L415.174 336.767C325.505 246.377 221.558 179.873 102.807 160.425C-16.2358 140.93 -148.151 169.048 -292.841 264.157L-285.151 275.856ZM405.234 346.627L395.295 356.487C567.968 530.551 690.927 800.762 767.095 1005.94L780.22 1001.07L793.345 996.194C716.953 790.417 592.32 515.341 415.174 336.767L405.234 346.627ZM793.004 982.332L781.439 974.441L781.2 974.793L792.764 982.684L804.328 990.575L804.568 990.223L793.004 982.332ZM792.764 982.684L805.838 977.677C726.566 770.675 591.032 492.144 407.823 311.235L397.986 321.197L388.149 331.159C567.024 507.787 700.829 781.763 779.69 987.69L792.764 982.684ZM397.986 321.197L407.822 311.235C336.27 240.582 256.961 184.328 170.364 153.307L165.643 166.487L160.922 179.667C242.581 208.919 318.533 262.417 388.149 331.159L397.986 321.197ZM165.643 166.487L170.364 153.307C83.5537 122.21 -10.1446 116.648 -109.726 146.816L-105.667 160.214L-101.608 173.613C-8.04762 145.269 79.4924 150.497 160.922 179.667L165.643 166.487ZM-105.667 160.214L-109.726 146.815C-159.323 161.84 -210.191 185.675 -262.255 219.399L-254.644 231.149L-247.033 242.9C-196.904 210.429 -148.407 187.789 -101.608 173.613L-105.667 160.214ZM-254.644 231.149L-243.08 239.04L-242.565 238.287L-254.13 230.396L-265.694 222.505L-266.208 223.258L-254.644 231.149ZM-254.13 230.396L-246.532 242.155C-196.625 209.909 -148.333 187.4 -101.725 173.281L-105.783 159.882L-109.842 146.483C-159.236 161.446 -209.89 185.144 -261.727 218.637L-254.13 230.396ZM-105.783 159.882L-101.725 173.281C-8.08692 144.915 79.5304 150.149 161.029 179.341L165.75 166.161L170.471 152.981C83.5918 121.861 -10.1834 116.293 -109.842 146.483L-105.783 159.882ZM165.75 166.161L161.029 179.341C242.74 208.612 318.738 262.14 388.391 330.918L398.228 320.956L408.065 310.995C336.475 240.303 257.119 184.021 170.472 152.981L165.75 166.161ZM398.228 320.956L388.391 330.918C567.243 507.522 701.038 781.408 779.929 987.343L793.002 982.334L806.076 977.326C726.774 770.317 591.25 491.877 408.065 310.994L398.228 320.956ZM793.002 982.334L804.566 990.226L804.568 990.223L793.004 982.332L781.439 974.441L781.438 974.443L793.002 982.334ZM805.803 963.575L794.239 955.684L794.002 956.031L805.567 963.922L817.131 971.813L817.368 971.466L805.803 963.575ZM805.567 963.922L818.59 958.785C732.39 740.248 575.256 440.245 371.93 258.623L362.603 269.065L353.276 279.506C551.728 456.772 706.896 751.923 792.543 969.059L805.567 963.922ZM362.603 269.065L371.93 258.623C302.045 196.199 226.237 147.333 145.501 120.806L141.131 134.107L136.761 147.407C212.824 172.399 285.351 218.831 353.276 279.506L362.603 269.065ZM141.131 134.107L145.501 120.806C64.5891 94.2223 -20.9825 90.1872 -109.766 117.081L-105.707 130.48L-101.648 143.878C-18.7794 118.776 60.8948 122.481 136.761 147.407L141.131 134.107ZM-105.707 130.48L-109.766 117.081C-149.269 129.05 -189.259 147.099 -229.635 171.842L-222.32 183.779L-215.005 195.716C-176.489 172.113 -138.673 155.097 -101.647 143.878L-105.707 130.48ZM-222.32 183.779L-210.756 191.67L-210.266 190.953L-221.83 183.062L-233.394 175.171L-233.884 175.888L-222.32 183.779ZM-221.83 183.062L-214.531 195.008C-176.22 171.601 -138.601 154.708 -101.762 143.548L-105.821 130.149L-109.88 116.75C-149.181 128.656 -188.963 146.574 -229.129 171.115L-221.83 183.062ZM-105.821 130.149L-101.762 143.548C-18.8207 118.421 60.9247 122.13 136.862 147.08L141.232 133.78L145.602 120.479C64.6196 93.8717 -21.0237 89.8313 -109.88 116.75L-105.821 130.149ZM141.232 133.78L136.862 147.08C212.973 172.089 285.543 218.547 353.505 279.253L362.832 268.812L372.158 258.371C302.236 195.914 226.386 147.023 145.603 120.479L141.232 133.78ZM362.832 268.812L353.505 279.253C551.935 456.502 707.097 751.563 792.779 968.715L805.802 963.577L818.825 958.438C732.59 739.884 575.462 439.973 372.158 258.371L362.832 268.812ZM805.802 963.577L817.366 971.468L817.368 971.466L805.803 963.575L794.239 955.684L794.238 955.686L805.802 963.577ZM818.619 944.793L807.055 936.902L806.82 937.247L818.384 945.138L829.948 953.029L830.183 952.685L818.619 944.793ZM818.384 945.138L831.357 939.876C767.439 782.284 662.729 582.129 531.84 413.761L520.787 422.354L509.734 430.946C638.71 596.854 742.233 794.635 805.41 950.4L818.384 945.138ZM520.787 422.354L531.84 413.761C434.135 288.079 321.072 179.103 198.597 119.366L192.459 131.949L186.322 144.532C303.337 201.606 413.264 306.853 509.734 430.946L520.787 422.354ZM192.459 131.949L198.597 119.366C75.5153 59.3337 -57.2653 49.0463 -191.925 121.417L-185.297 133.749L-178.67 146.081C-53.2033 78.6509 69.9593 87.7768 186.322 144.532L192.459 131.949ZM-185.297 133.749L-191.924 121.417C-193.519 122.274 -195.098 123.139 -196.647 123.992L-189.89 136.254L-183.132 148.515C-181.621 147.682 -180.14 146.871 -178.671 146.082L-185.297 133.749ZM-189.89 136.254L-178.325 144.145L-177.884 143.498L-189.448 135.607L-201.012 127.715L-201.454 128.363L-189.89 136.254ZM-189.448 135.607L-182.7 147.873C-181.406 147.161 -180.121 146.461 -178.846 145.776L-185.472 133.443L-192.098 121.11C-193.473 121.849 -194.842 122.595 -196.197 123.34L-189.448 135.607ZM-185.472 133.443L-178.844 145.775C-53.2636 78.282 70.0061 87.4157 186.467 144.222L192.605 131.639L198.743 119.056C75.562 58.9723 -57.3259 48.6776 -192.1 121.111L-185.472 133.443ZM192.605 131.639L186.468 144.222C303.536 201.324 413.506 306.61 510.007 430.743L521.06 422.15L532.113 413.557C434.376 287.835 321.271 178.821 198.742 119.056L192.605 131.639ZM521.06 422.15L510.007 430.743C638.944 596.599 742.448 794.302 805.645 950.059L818.618 944.796L831.591 939.532C767.653 781.949 662.962 581.873 532.113 413.557L521.06 422.15ZM818.618 944.796L830.182 952.687L830.183 952.685L818.619 944.793L807.055 936.902L807.053 936.905L818.618 944.796ZM831.445 925.997L819.881 918.106L819.648 918.447L831.213 926.338L842.777 934.229L843.009 933.889L831.445 925.997ZM831.213 926.338L844.137 920.956C774.637 754.065 654.787 538.466 507.991 362.792L497.248 371.769L486.505 380.746C631.196 553.901 749.679 766.967 818.289 931.72L831.213 926.338ZM497.248 371.769L507.991 362.792C408.127 243.285 295.007 141.305 175.926 86.2682L170.052 98.9766L164.179 111.685C277.938 164.262 387.909 262.757 486.505 380.747L497.248 371.769ZM170.052 98.9766L175.925 86.2679C65.6771 35.3199 -50.2358 24.4364 -164.593 77.8177L-158.671 90.5036L-152.749 103.19C-47.4329 54.0284 59.6899 63.3983 164.179 111.685L170.052 98.9766ZM-158.671 90.5036L-147.107 98.3947L-146.718 97.8242L-158.282 89.9331L-169.846 82.042L-170.235 82.6126L-158.671 90.5036ZM-158.282 89.9331L-152.38 102.628C-47.1319 53.6965 59.9099 63.1193 164.318 111.375L170.192 98.6664L176.065 85.9581C65.9092 35.0462 -49.9048 24.1075 -164.184 77.2381L-158.282 89.9331ZM170.192 98.6664L164.318 111.375C278.133 163.977 388.144 262.505 486.772 380.533L497.515 371.556L508.258 362.579C408.361 243.033 295.202 141.02 176.065 85.958L170.192 98.6664ZM497.515 371.556L486.772 380.533C631.423 553.638 749.885 766.63 818.522 931.381L831.445 925.997L844.368 920.613C774.842 753.727 655.013 538.202 508.258 362.579L497.515 371.556ZM844.286 907.18L832.721 899.289L832.489 899.63L844.053 907.521L855.617 915.412L855.85 915.071L844.286 907.18ZM844.053 907.521L856.929 902.023C781.619 725.648 645.014 493.778 481.642 311.449L471.216 320.792L460.789 330.134C621.866 509.902 756.911 739.085 831.178 913.018L844.053 907.521ZM471.216 320.792L481.642 311.449C380.349 198.401 267.965 103.495 152.687 53.1925L147.088 66.024L141.489 78.8556C251.562 126.887 360.785 218.525 460.789 330.134L471.216 320.792ZM147.088 66.024L152.687 53.1923C57.7724 11.7792 -39.8073 0.349511 -134.47 34.8575L-129.675 48.0108L-124.88 61.1641C-38.6161 29.7177 51.3641 39.5323 141.49 78.8558L147.088 66.024ZM-129.675 48.0108L-118.111 55.9019L-117.77 55.4016L-129.334 47.5105L-140.898 39.6194L-141.239 40.1197L-129.675 48.0108ZM-129.334 47.5105L-124.559 60.671C-38.3444 29.389 51.569 39.2459 141.623 78.5411L147.222 65.7095L152.821 52.8779C57.9869 11.4968 -39.5087 0.0252894 -134.109 34.3501L-129.334 47.5105ZM147.222 65.7095L141.623 78.5411C251.748 126.596 361.013 218.269 461.05 329.913L471.476 320.57L481.903 311.227C380.577 198.145 268.151 103.204 152.821 52.878L147.222 65.7095ZM471.476 320.57L461.049 329.913C622.086 509.634 757.108 738.743 831.41 912.682L844.284 907.182L857.159 901.683C781.815 725.304 645.234 493.509 481.903 311.227L471.476 320.57ZM844.284 907.182L855.848 915.073L855.85 915.071L844.286 907.18L832.721 899.289L832.72 899.291L844.284 907.182ZM857.136 888.348L845.572 880.457L845.341 880.795L856.905 888.686L868.469 896.577L868.7 896.239L857.136 888.348ZM856.905 888.686L869.733 883.078C788.472 697.236 633.629 448.556 453.402 260.435L443.292 270.121L433.183 279.806C610.932 465.34 764.015 711.191 844.078 894.295L856.905 888.686ZM443.292 270.121L453.402 260.436C351.386 153.95 240.417 65.9982 129.245 20.3124L123.923 33.2616L118.602 46.2109C224.669 89.7988 332.469 174.679 433.183 279.806L443.292 270.121ZM123.923 33.2616L129.244 20.3122C50.0703 -12.22 -29.875 -23.5624 -106.808 -4.10337L-103.375 9.46921L-99.9424 23.0418C-30.3119 5.42984 43.3737 15.3 118.602 46.2111L123.923 33.2616ZM-103.375 9.46921L-91.8112 17.3603L-91.512 16.9217L-103.076 9.03066L-114.64 1.13957L-114.94 1.57812L-103.375 9.46921ZM-103.076 9.03066L-99.6618 22.6079C-30.0664 5.10625 43.565 15.0041 118.729 45.892L124.05 32.9428L129.372 19.9935C50.2685 -12.5132 -29.6075 -23.881 -106.491 -4.5466L-103.076 9.03066ZM124.05 32.9428L118.729 45.8922C224.848 89.4965 332.689 174.408 433.435 279.569L443.544 269.884L453.654 260.199C351.606 153.679 240.595 65.6954 129.371 19.9933L124.05 32.9428ZM443.544 269.884L433.435 279.569C611.143 465.063 764.204 710.838 844.31 893.959L857.136 888.348L869.963 882.737C788.661 696.88 633.839 448.278 453.654 260.199L443.544 269.884ZM-191.087 621.074L-188.674 634.865C75.6143 588.614 246.44 593.249 357.014 630.045C412.023 648.351 451.942 674.56 481.204 706.35C510.502 738.178 529.695 776.232 542.311 819.037L555.74 815.079L569.169 811.121C555.636 765.207 534.641 723.059 501.805 687.387C468.934 651.676 424.775 623.085 365.855 603.478C248.569 564.447 72.1302 560.798 -193.501 607.284L-191.087 621.074ZM555.74 815.079L542.311 819.037C564.864 895.559 566.037 985.614 567.157 1079.97L581.156 1079.8L595.155 1079.63C594.047 986.309 593.03 892.082 569.169 811.121L555.74 815.079ZM581.156 1079.8L567.157 1079.97C567.429 1102.91 567.704 1126.07 568.306 1149.18L582.302 1148.81L596.297 1148.45C595.701 1125.57 595.427 1102.61 595.155 1079.63L581.156 1079.8ZM582.302 1148.81L590.193 1137.25L589.833 1137L581.942 1148.57L574.051 1160.13L574.411 1160.38L582.302 1148.81ZM581.942 1148.57L595.937 1148.2C595.344 1125.4 595.073 1102.52 594.802 1079.62L580.803 1079.79L566.804 1079.96C567.074 1102.82 567.348 1125.9 567.947 1148.93L581.942 1148.57ZM580.803 1079.79L594.802 1079.62C593.695 986.322 592.681 892.119 568.833 811.207L555.404 815.165L541.975 819.123C564.515 895.595 565.685 985.626 566.804 1079.96L580.803 1079.79ZM555.404 815.165L568.833 811.207C555.315 765.345 534.341 723.244 501.536 687.612C468.696 651.941 424.578 623.382 365.715 603.795C248.542 564.806 72.2763 561.153 -193.086 607.566L-190.674 621.356L-188.262 635.147C75.758 588.969 246.413 593.607 356.875 630.363C411.829 648.649 451.706 674.826 480.937 706.577C510.203 738.365 529.374 776.371 541.975 819.123L555.404 815.165ZM-190.674 621.356L-182.783 609.792L-183.196 609.51L-191.087 621.074L-198.978 632.639L-198.565 632.92L-190.674 621.356Z" fill="#FAD129" mask="url(#path-1-inside-1_16569_8344)"/>
</g>
<defs>
<filter id="filter0_d_16569_8344" x="-413.789" y="0" width="1274.92" height="1195.11" filterUnits="userSpaceOnUse" color-interpolation-filters="sRGB">
<feFlood flood-opacity="0" result="BackgroundImageFix"/>
<feColorMatrix in="SourceAlpha" type="matrix" values="0 0 0 0 0 0 0 0 0 0 0 0 0 0 0 0 0 0 127 0" result="hardAlpha"/>
<feOffset dy="4"/>
<feGaussianBlur stdDeviation="2"/>
<feComposite in2="hardAlpha" operator="out"/>
<feColorMatrix type="matrix" values="0 0 0 0 0 0 0 0 0 0 0 0 0 0 0 0 0 0 0.25 0"/>
<feBlend mode="normal" in2="BackgroundImageFix" result="effect1_dropShadow_16569_8344"/>
<feBlend mode="normal" in="SourceGraphic" in2="effect1_dropShadow_16569_8344" result="shape"/>
</filter>
</defs>
</svg>
