<svg width="515" height="589" viewBox="0 0 515 589" fill="none" xmlns="http://www.w3.org/2000/svg">
<g clip-path="url(#clip0_16569_8289)">
<rect x="92.9922" y="-35.3623" width="51.1885" height="51.1885" rx="5.64839" stroke="#F0F0F0" stroke-width="0.529536"/>
<rect x="144.18" y="-35.3623" width="51.1885" height="51.1885" rx="5.64839" stroke="#F0F0F0" stroke-width="0.529536"/>
<rect x="195.367" y="-35.3623" width="51.1885" height="51.1885" rx="5.64839" stroke="#F0F0F0" stroke-width="0.529536"/>
<rect x="246.555" y="-35.3623" width="51.1885" height="51.1885" rx="5.64839" stroke="#F0F0F0" stroke-width="0.529536"/>
<rect x="297.75" y="-35.3623" width="51.1885" height="51.1885" rx="5.64839" stroke="#F0F0F0" stroke-width="0.529536"/>
<rect x="348.938" y="-35.3623" width="51.1885" height="51.1885" rx="5.64839" stroke="#F0F0F0" stroke-width="0.529536"/>
<rect x="92.9922" y="15.8262" width="51.1885" height="51.1885" rx="5.64839" stroke="#F0F0F0" stroke-width="0.529536"/>
<rect x="144.18" y="15.8262" width="51.1885" height="51.1885" rx="5.64839" stroke="#F0F0F0" stroke-width="0.529536"/>
<rect x="195.367" y="15.8262" width="51.1885" height="51.1885" rx="5.64839" stroke="#F0F0F0" stroke-width="0.529536"/>
<rect x="246.555" y="15.8262" width="51.1885" height="51.1885" rx="5.64839" stroke="#F0F0F0" stroke-width="0.529536"/>
<rect x="297.75" y="15.8262" width="51.1885" height="51.1885" rx="5.64839" stroke="#F0F0F0" stroke-width="0.529536"/>
<rect x="348.938" y="15.8262" width="51.1885" height="51.1885" rx="5.64839" stroke="#F0F0F0" stroke-width="0.529536"/>
<rect x="92.9922" y="67.0156" width="51.1885" height="51.1885" rx="5.64839" stroke="#F0F0F0" stroke-width="0.529536"/>
<rect x="144.18" y="67.0156" width="51.1885" height="51.1885" rx="5.64839" stroke="#F0F0F0" stroke-width="0.529536"/>
<rect x="195.367" y="67.0156" width="51.1885" height="51.1885" rx="5.64839" stroke="#F0F0F0" stroke-width="0.529536"/>
<rect x="246.555" y="67.0156" width="51.1885" height="51.1885" rx="5.64839" stroke="#F0F0F0" stroke-width="0.529536"/>
<rect x="297.75" y="67.0156" width="51.1885" height="51.1885" rx="5.64839" stroke="#F0F0F0" stroke-width="0.529536"/>
<rect x="348.938" y="67.0156" width="51.1885" height="51.1885" rx="5.64839" stroke="#F0F0F0" stroke-width="0.529536"/>
<rect x="92.9922" y="118.204" width="51.1885" height="51.1885" rx="5.64839" stroke="#F0F0F0" stroke-width="0.529536"/>
<rect x="144.18" y="118.204" width="51.1885" height="51.1885" rx="5.64839" stroke="#F0F0F0" stroke-width="0.529536"/>
<rect x="195.367" y="118.204" width="51.1885" height="51.1885" rx="5.64839" stroke="#F0F0F0" stroke-width="0.529536"/>
<rect x="246.555" y="118.204" width="51.1885" height="51.1885" rx="5.64839" stroke="#F0F0F0" stroke-width="0.529536"/>
<rect x="297.75" y="118.204" width="51.1885" height="51.1885" rx="5.64839" stroke="#F0F0F0" stroke-width="0.529536"/>
<rect x="348.938" y="118.204" width="51.1885" height="51.1885" rx="5.64839" stroke="#F0F0F0" stroke-width="0.529536"/>
<rect x="92.9922" y="169.393" width="51.1885" height="51.1885" rx="5.64839" stroke="#F0F0F0" stroke-width="0.529536"/>
<rect x="144.18" y="169.393" width="51.1885" height="51.1885" rx="5.64839" stroke="#F0F0F0" stroke-width="0.529536"/>
<rect x="195.367" y="169.393" width="51.1885" height="51.1885" rx="5.64839" stroke="#F0F0F0" stroke-width="0.529536"/>
<rect x="246.555" y="169.393" width="51.1885" height="51.1885" rx="5.64839" stroke="#F0F0F0" stroke-width="0.529536"/>
<rect x="297.75" y="169.393" width="51.1885" height="51.1885" rx="5.64839" stroke="#F0F0F0" stroke-width="0.529536"/>
<rect x="348.938" y="169.393" width="51.1885" height="51.1885" rx="5.64839" stroke="#F0F0F0" stroke-width="0.529536"/>
<rect x="92.9922" y="220.58" width="51.1885" height="51.1885" rx="5.64839" stroke="#F0F0F0" stroke-width="0.529536"/>
<rect x="144.18" y="220.58" width="51.1885" height="51.1885" rx="5.64839" stroke="#F0F0F0" stroke-width="0.529536"/>
<rect x="195.367" y="220.58" width="51.1885" height="51.1885" rx="5.64839" stroke="#F0F0F0" stroke-width="0.529536"/>
<rect x="246.555" y="220.58" width="51.1885" height="51.1885" rx="5.64839" stroke="#F0F0F0" stroke-width="0.529536"/>
<rect x="297.75" y="220.58" width="51.1885" height="51.1885" rx="5.64839" stroke="#F0F0F0" stroke-width="0.529536"/>
<rect x="348.938" y="220.58" width="51.1885" height="51.1885" rx="5.64839" stroke="#F0F0F0" stroke-width="0.529536"/>
<path d="M297.743 -31.125V10.1788C297.743 13.2983 300.272 15.8272 303.392 15.8272H343.283C346.403 15.8272 348.932 18.3561 348.932 21.4756V61.3673C348.932 64.4868 351.461 67.0157 354.58 67.0157H394.472C397.591 67.0157 400.12 69.5446 400.12 72.6641V112.556C400.12 115.675 402.649 118.204 405.769 118.204H445.66C448.78 118.204 451.309 120.733 451.309 123.853V163.744C451.309 166.864 453.838 169.393 456.957 169.393H498.261M246.555 -31.125V10.1788C246.555 13.2983 249.084 15.8272 252.203 15.8272H292.095C295.214 15.8272 297.743 18.3561 297.743 21.4756V61.3673C297.743 64.4868 300.272 67.0157 303.392 67.0157H343.283C346.403 67.0157 348.932 69.5446 348.932 72.6641V112.556C348.932 115.675 346.403 118.204 343.283 118.204H303.392C300.272 118.204 297.743 115.675 297.743 112.556V71.9581L297.694 71.6244C297.315 69.0661 295.143 67.1558 292.557 67.1061L287.859 67.0157H252.203C249.084 67.0157 246.555 69.5446 246.555 72.6641V112.556C246.555 115.675 249.084 118.204 252.203 118.204H292.448L293.789 118.294C296.014 118.442 297.743 120.29 297.743 122.521V126.853M297.743 122.441V163.744C297.743 166.864 300.272 169.393 303.392 169.393H343.283C346.403 169.393 348.932 171.922 348.932 175.041V214.933C348.932 218.052 351.461 220.581 354.58 220.581H394.472C397.591 220.581 400.12 223.11 400.12 226.23V266.121C400.12 269.241 402.649 271.77 405.769 271.77H445.66C448.78 271.77 451.309 274.299 451.309 277.418V317.31C451.309 320.429 453.838 322.958 456.957 322.958H498.261" stroke="url(#paint0_linear_16569_8289)" stroke-opacity="0.8" stroke-width="0.529536"/>
<rect x="92.9922" y="285.227" width="287.009" height="153.566" transform="rotate(-90 92.9922 285.227)" fill="url(#paint1_linear_16569_8289)"/>
<rect x="380" y="323" width="287.009" height="153.566" transform="rotate(-180 380 323)" fill="url(#paint2_linear_16569_8289)"/>
<ellipse cx="293.51" cy="-36.3789" rx="190.986" ry="162.744" fill="url(#paint3_radial_16569_8289)"/>
</g>
<defs>
<linearGradient id="paint0_linear_16569_8289" x1="246.555" y1="-31.125" x2="492.613" y2="273.358" gradientUnits="userSpaceOnUse">
<stop offset="0.0819437" stop-color="#F7F7F7"/>
<stop offset="0.208333" stop-color="#F8B416"/>
<stop offset="0.658654" stop-color="#F8B416"/>
<stop offset="1" stop-color="#333333"/>
</linearGradient>
<linearGradient id="paint1_linear_16569_8289" x1="236.497" y1="285.227" x2="236.497" y2="438.792" gradientUnits="userSpaceOnUse">
<stop stop-color="white"/>
<stop offset="1" stop-color="white" stop-opacity="0"/>
</linearGradient>
<linearGradient id="paint2_linear_16569_8289" x1="523.504" y1="323" x2="523.504" y2="476.566" gradientUnits="userSpaceOnUse">
<stop stop-color="white"/>
<stop offset="0.713542" stop-color="white" stop-opacity="0.7"/>
<stop offset="1" stop-color="white" stop-opacity="0"/>
</linearGradient>
<radialGradient id="paint3_radial_16569_8289" cx="0" cy="0" r="1" gradientUnits="userSpaceOnUse" gradientTransform="translate(293.51 -36.3789) rotate(90) scale(162.744 190.986)">
<stop stop-color="white"/>
<stop offset="1" stop-color="white" stop-opacity="0"/>
</radialGradient>
<clipPath id="clip0_16569_8289">
<rect width="800" height="589" fill="white"/>
</clipPath>
</defs>
</svg>
